<svg xmlns="http://www.w3.org/2000/svg" width="18" height="18" viewBox="0 0 18 18">
  <path id="table-model" d="M697.469-23H684.531A2.537,2.537,0,0,1,682-25.531V-38.469A2.537,2.537,0,0,1,684.531-41h12.938A2.537,2.537,0,0,1,700-38.469v12.938A2.537,2.537,0,0,1,697.469-23ZM684.531-39.312a.844.844,0,0,0-.844.844v12.938a.844.844,0,0,0,.844.844h12.938a.844.844,0,0,0,.844-.844V-38.469a.844.844,0,0,0-.844-.844ZM691-31.342a1.2,1.2,0,0,1-.613-.169l-3.746-2.25a1.187,1.187,0,0,1-.582-1.021,1.187,1.187,0,0,1,.582-1.021l3.746-2.25a1.181,1.181,0,0,1,1.238,0l3.662,2.25a1.192,1.192,0,0,1,.567,1.015,1.192,1.192,0,0,1-.567,1.015l-3.662,2.25A1.192,1.192,0,0,1,691-31.342Zm-2.779-3.443L691-33.125l2.723-1.687L691-36.449Zm2.717,5.991a2.593,2.593,0,0,1-1.254-.326l-3.33-1.862a.844.844,0,0,1-.47-.732.844.844,0,0,1,.427-.758.844.844,0,0,1,.87.023l3.324,1.856a.889.889,0,0,0,.872,0l3.375-1.935a.844.844,0,0,1,1.153.309.844.844,0,0,1-.309,1.153l-3.375,1.935A2.587,2.587,0,0,1,690.938-28.794Zm-.006,2.981a3.06,3.06,0,0,1-1.462-.377l-3.116-1.744a.847.847,0,0,1-.434-.728.847.847,0,0,1,.413-.74.847.847,0,0,1,.847-.012l3.116,1.744a1.316,1.316,0,0,0,1.288,0l3.161-1.811a.844.844,0,0,1,.844,0,.844.844,0,0,1,.422.731.844.844,0,0,1-.422.731L692.423-26.2A3.026,3.026,0,0,1,690.932-25.812Z" transform="translate(-682 41)" fill="#6e7999" fill-rule="evenodd"/>
</svg>
