<svg id="图层_1" data-name="图层 1" xmlns="http://www.w3.org/2000/svg" viewBox="0 0 32 32"><defs><style>.cls-1{fill:none;}</style></defs><title>74</title><path d="M14,11.2a1.49,1.49,0,0,0-1.47,1.53c0,2.15,1.62,6.32,7.25,6.71h.1a1.5,1.5,0,0,0,.1-3c-4.17-.29-4.43-3.42-4.45-3.8A1.46,1.46,0,0,0,14,11.2Z"/><path d="M31.27,6.54l-6-5.82A2.5,2.5,0,0,0,23.52,0H11.6A4.75,4.75,0,0,0,6.81,4.7V7.41h-2A4.74,4.74,0,0,0,0,12.1V28.27A3.76,3.76,0,0,0,3.8,32H20.41a4.75,4.75,0,0,0,4.79-4.7V24.6h2A4.74,4.74,0,0,0,32,19.9V8.3A2.5,2.5,0,0,0,31.27,6.54ZM22.2,27.3A1.75,1.75,0,0,1,20.41,29H3.8a.77.77,0,0,1-.8-.73V12.1a1.74,1.74,0,0,1,1.78-1.69H16.51l5.69,5.53ZM29,19.9a1.75,1.75,0,0,1-1.78,1.7h-2V15.7A2.48,2.48,0,0,0,24.45,14l-6-5.83a2.48,2.48,0,0,0-1.75-.71H9.81V4.7A1.75,1.75,0,0,1,11.6,3H23.32L29,8.52Z"/><path d="M20.83,3.79a1.5,1.5,0,0,0-1.47,1.53c0,2.16,1.62,6.33,7.25,6.72h.1a1.5,1.5,0,0,0,.1-3c-4.18-.28-4.43-3.42-4.45-3.79A1.5,1.5,0,0,0,20.83,3.79Z"/><rect class="cls-1" width="32" height="32"/></svg>