<svg xmlns="http://www.w3.org/2000/svg" width="18" height="18" viewBox="0 0 18 18">
  <path id="model" d="M871.1-93.4a.854.854,0,0,1-.433-.124l-8.239-4.953a.844.844,0,0,1-.418-.728.844.844,0,0,1,.418-.728l8.239-4.942a.86.86,0,0,1,.9.006l8.031,4.937a.849.849,0,0,1,.4.72.849.849,0,0,1-.4.72l-8.031,4.965A.865.865,0,0,1,871.1-93.4Zm-6.6-5.8,6.6,3.936,6.452-3.936-6.452-3.97Zm6.474,8.878a.814.814,0,0,1-.41-.107l-8.11-4.532a.844.844,0,0,1-.448-.726.843.843,0,0,1,.415-.746.843.843,0,0,1,.853,0l7.694,4.3,7.772-4.464a.843.843,0,0,1,1.152.309.844.844,0,0,1-.309,1.153l-8.188,4.706A.871.871,0,0,1,870.968-90.317Zm0,3.317a.814.814,0,0,1-.41-.107l-8.11-4.532a.844.844,0,0,1-.311-1.138.843.843,0,0,1,1.131-.335l7.694,4.3,7.772-4.464a.837.837,0,0,1,.641-.087.837.837,0,0,1,.511.4.849.849,0,0,1-.309,1.153l-8.188,4.7A.876.876,0,0,1,870.968-87Z" transform="translate(-862 105)" fill="#6e7999" fill-rule="evenodd"/>
</svg>
