<svg xmlns="http://www.w3.org/2000/svg" width="18" height="18" viewBox="0 0 18 18">
  <path id="app" d="M868.114-426.321h-3.589A2.537,2.537,0,0,1,862-428.852v-3.617A2.537,2.537,0,0,1,864.526-435h3.589a2.537,2.537,0,0,1,2.531,2.531v3.617A2.537,2.537,0,0,1,868.114-426.321Zm-3.589-6.992a.844.844,0,0,0-.838.844v3.617a.844.844,0,0,0,.844.844h3.589a.844.844,0,0,0,.844-.844v-3.617a.844.844,0,0,0-.249-.6.844.844,0,0,0-.6-.245Zm12.938,6.992h-3.589a2.537,2.537,0,0,1-2.531-2.531v-3.617A2.537,2.537,0,0,1,873.874-435h3.589A2.537,2.537,0,0,1,880-432.469v3.617A2.537,2.537,0,0,1,877.463-426.321Zm-3.589-6.992a.844.844,0,0,0-.844.844v3.617a.844.844,0,0,0,.844.844h3.589a.844.844,0,0,0,.844-.844v-3.617a.844.844,0,0,0-.844-.844ZM877.463-417h-3.589a2.537,2.537,0,0,1-2.531-2.531v-3.617a2.537,2.537,0,0,1,2.531-2.531h3.589a2.537,2.537,0,0,1,2.531,2.531v3.617A2.537,2.537,0,0,1,877.463-417Zm-3.589-6.992a.844.844,0,0,0-.844.844v3.617a.844.844,0,0,0,.844.844h3.589a.844.844,0,0,0,.6-.245.844.844,0,0,0,.249-.6v-3.617a.844.844,0,0,0-.844-.844ZM868.114-417h-3.589A2.537,2.537,0,0,1,862-419.531v-3.617a2.537,2.537,0,0,1,2.531-2.531h3.589a2.537,2.537,0,0,1,2.531,2.531v3.617A2.537,2.537,0,0,1,868.114-417Zm-3.589-6.992a.844.844,0,0,0-.838.844v3.617a.844.844,0,0,0,.838.844h3.589a.844.844,0,0,0,.844-.844v-3.617a.844.844,0,0,0-.844-.844Z" transform="translate(-862 435)" fill="#6e7999" fill-rule="evenodd"/>
</svg>
