<svg xmlns="http://www.w3.org/2000/svg" width="18" height="18" viewBox="0 0 18 18">
  <path id="workspace" d="M159.156-371H142.844a.844.844,0,0,0-.844.844V-358.7a.844.844,0,0,0,.844.844h7.313v3.173h-4.641a.844.844,0,0,0-.844.844.844.844,0,0,0,.844.844h10.969a.844.844,0,0,0,.844-.844.844.844,0,0,0-.844-.844h-4.641v-3.173h7.313A.844.844,0,0,0,160-358.7v-11.452A.844.844,0,0,0,159.156-371Zm-.844,11.452H143.688v-9.765h14.625Z" transform="translate(-142 371)" fill="#6e7999" fill-rule="evenodd"/>
</svg>
