<svg xmlns="http://www.w3.org/2000/svg" width="18" height="18" viewBox="0 0 18 18">
  <path id="setting" d="M507.067-485.486a.844.844,0,0,1,1.048-.1,5.24,5.24,0,0,0,1.712.727.844.844,0,0,1,.657.823v1.066a.281.281,0,0,0,.281.281h.469a.281.281,0,0,0,.281-.281v-1.066a.844.844,0,0,1,.657-.823,5.237,5.237,0,0,0,1.634-.677.844.844,0,0,1,1.047.117l.754.754a.281.281,0,0,0,.4,0l.331-.331a.281.281,0,0,0,0-.4l-.754-.754a.844.844,0,0,1-.117-1.046,5.237,5.237,0,0,0,.677-1.634.844.844,0,0,1,.823-.657h1.066a.281.281,0,0,0,.281-.281v-.469a.281.281,0,0,0-.281-.281h-1.066a.844.844,0,0,1-.823-.657,5.237,5.237,0,0,0-.629-1.556.844.844,0,0,1,.135-1.044l.767-.741a.281.281,0,0,0,.007-.4l-.326-.337a.281.281,0,0,0-.4-.007l-.767.741a.844.844,0,0,1-1.048.1,5.24,5.24,0,0,0-1.712-.727.844.844,0,0,1-.657-.823v-1.066a.281.281,0,0,0-.281-.281h-.469a.281.281,0,0,0-.281.281v1.066a.844.844,0,0,1-.657.823,5.237,5.237,0,0,0-1.634.677.844.844,0,0,1-1.046-.117l-.754-.754a.281.281,0,0,0-.4,0l-.331.331a.281.281,0,0,0,0,.4l.754.754a.844.844,0,0,1,.117,1.046,5.236,5.236,0,0,0-.677,1.634.844.844,0,0,1-.823.657h-1.066a.281.281,0,0,0-.281.281v.469a.281.281,0,0,0,.281.281h1.066a.844.844,0,0,1,.823.657,5.234,5.234,0,0,0,.629,1.556.844.844,0,0,1-.135,1.044l-.767.741a.281.281,0,0,0-.007.4l.326.337a.281.281,0,0,0,.4.007Zm.405,1.955a1.969,1.969,0,0,1-2.784-.049l-.326-.337a1.969,1.969,0,0,1,.049-2.784l.307-.3a6.928,6.928,0,0,1-.324-.8h-.426A1.969,1.969,0,0,1,502-489.766v-.469a1.969,1.969,0,0,1,1.969-1.969h.426a6.915,6.915,0,0,1,.377-.909l-.3-.3a1.969,1.969,0,0,1,0-2.784l.331-.331a1.969,1.969,0,0,1,2.784,0l.3.3a6.916,6.916,0,0,1,.909-.377v-.426A1.969,1.969,0,0,1,510.766-499h.469a1.969,1.969,0,0,1,1.969,1.969v.426a6.915,6.915,0,0,1,1.017.432l.307-.3a1.969,1.969,0,0,1,2.784.049l.326.337a1.969,1.969,0,0,1-.049,2.784l-.307.3a6.928,6.928,0,0,1,.323.8h.426A1.969,1.969,0,0,1,520-490.234v.469a1.969,1.969,0,0,1-1.969,1.969H517.6a6.9,6.9,0,0,1-.377.909l.3.3a1.969,1.969,0,0,1,0,2.784l-.331.331a1.969,1.969,0,0,1-2.784,0l-.3-.3a6.916,6.916,0,0,1-.909.377v.426A1.969,1.969,0,0,1,511.234-481h-.469a1.969,1.969,0,0,1-1.969-1.969v-.426a6.913,6.913,0,0,1-1.017-.432ZM511-486.344A3.656,3.656,0,0,1,507.344-490,3.656,3.656,0,0,1,511-493.656,3.656,3.656,0,0,1,514.656-490,3.656,3.656,0,0,1,511-486.344Zm0-1.687A1.969,1.969,0,0,0,512.969-490,1.969,1.969,0,0,0,511-491.969,1.969,1.969,0,0,0,509.031-490,1.969,1.969,0,0,0,511-488.031Z" transform="translate(-502 499)" fill="#6e7999" fill-rule="evenodd"/>
</svg>
