<svg xmlns="http://www.w3.org/2000/svg" width="15.741" height="18" viewBox="0 0 15.741 18">
  <path id="message" d="M327.373-420.384h8.995v-6.184c0-2.164-.809-4.067-2.816-4.774a1.687,1.687,0,0,1-1.121-1.457.562.562,0,0,0-.56-.515.562.562,0,0,0-.56.515,1.687,1.687,0,0,1-1.121,1.457c-2.007.707-2.816,2.61-2.816,4.774Zm10.681,0h.9a.818.818,0,0,1,.791.843.818.818,0,0,1-.791.843H324.791a.818.818,0,0,1-.791-.843.818.818,0,0,1,.791-.843h.9v-6.184c0-2.94,1.318-5.441,3.942-6.365A2.249,2.249,0,0,1,331.87-435a2.249,2.249,0,0,1,2.241,2.068c2.624.924,3.942,3.425,3.942,6.365ZM331.87-417a2.975,2.975,0,0,1-2.249-1.124h4.5A2.975,2.975,0,0,1,331.87-417Z" transform="translate(-324 435)" fill="#6e7999" fill-rule="evenodd"/>
</svg>
